<?xml version="1.0" encoding="utf-8"?>
<!-- Generator: Adobe Illustrator 23.0.2, SVG Export Plug-In . SVG Version: 6.00 Build 0)  -->
<svg version="1.1" id="Logo" xmlns="http://www.w3.org/2000/svg" xmlns:xlink="http://www.w3.org/1999/xlink" x="0px" y="0px"
	 viewBox="0 0 137 28" style="enable-background:new 0 0 137 28;" xml:space="preserve">
<style type="text/css">
	.st0{fill:#FEFEFE;}
	.st1{fill:#65E496;}
	.st2{font-family:'Arial-BoldMT';}
	.st3{font-size:28px;}
	.st4{fill-rule:evenodd;clip-rule:evenodd;fill:#65E496;}
	.st5{fill-rule:evenodd;clip-rule:evenodd;fill:#80809B;}
</style>
<path class="st0" d="M41,3h8c1.6,0,2.8,0.1,3.5,0.2S54,3.6,54.6,4s1.1,1,1.5,1.7s0.6,1.5,0.6,2.3c0,0.9-0.3,1.8-0.8,2.6
	s-1,1.4-1.9,1.7c1.2,0.4,2.2,1,2.8,1.8s1,1.9,1,3c0,0.9-0.2,1.8-0.6,2.7s-1,1.5-1.7,2.1c-0.7,0.5-1.6,0.8-2.7,1
	C52.1,23,50.5,23,47.9,23H41V3z M45.1,6.3v4.6h2.7c1.6,0,2.6,0,2.9-0.1c0.7-0.1,1.2-0.3,1.6-0.7s0.6-0.9,0.6-1.6
	c0-0.6-0.2-1.1-0.5-1.5s-0.9-0.6-1.5-0.7c-0.4,0-1.6-0.1-3.5-0.1h-2.3V6.3z M45.1,14.3v5.4h3.7c1.5,0,2.4,0,2.8-0.1
	c0.6-0.1,1.1-0.4,1.5-0.8s0.6-1,0.6-1.7c0-0.6-0.1-1.1-0.4-1.5c-0.3-0.4-0.7-0.7-1.3-0.9s-1.7-0.3-3.6-0.3h-3.3V14.3z M61.2,3h4
	v10.9c0,1.7,0,2.8,0.2,3.3c0.2,0.8,0.6,1.5,1.2,2c0.7,0.5,1.5,0.7,2.7,0.7c1.1,0,2-0.2,2.6-0.7s0.9-1,1.1-1.7s0.2-1.8,0.2-3.4V3h4
	v10.5c0,2.4-0.1,4.1-0.3,5.1s-0.6,1.8-1.2,2.5s-1.4,1.2-2.4,1.6s-2.3,0.6-3.9,0.6c-1.9,0-3.4-0.2-4.4-0.7c-1-0.4-1.8-1-2.3-1.7
	s-1-1.4-1.1-2.2c-0.3-1.1-0.4-2.8-0.4-5.1L61.2,3L61.2,3z M81.5,23V3h4v8.9L93.7,3h5.4l-7.5,7.8l8,12.2h-5.2l-5.5-9.4l-3.3,3.3V23
	H81.5z"/>
<text transform="matrix(1 0 0 1 99.655 23)" class="st1 st2 st3">EE</text>
<g id="logo_icon">
	<path id="Rectangle_10_copy_3" class="st4" d="M28,28L0,0h28V28z"/>
	<path class="st5" d="M28,0L0,28V0H28z"/>
</g>
</svg>
